{"title":"X-Men Days of Future Past KORSUB 2014 720p HDRip x264 MP3-[RARBG","uid":10788407,"size":4306399683,"categoryP":"video","categoryS":"hd___movies","magnet":"?xt=urn:btih:e0b96b71edf4470a5a6258015e85c87256daf909&amp;dn=X-Men+Days+of+Future+Past+KORSUB+2014+720p+HDRip+x264+MP3-%5BRARBG&amp;tr=udp%3A%2F%2Ftracker.openbittorrent.com%3A80&amp;tr=udp%3A%2F%2Fopen.demonii.com%3A1337&amp;tr=udp%3A%2F%2Ftracker.coppersurfer.tk%3A6969&amp;tr=udp%3A%2F%2Fexodus.desync.com%3A6969","seeders":7,"leechers":1,"uploader":"TeX","files":2,"time":1408229618,"description":" &lt;a href=&quot;http://www.imdb.com/title/tt1877832/&quot; rel=&quot;nofollow&quot; target=&quot;_NEW&quot;&gt;http://www.imdb.com/title/tt1877832/&lt;/a&gt;\n\n[img]http://www.tosarang.net/data/file/torrent_movie_eng/846537278_DJ6nGYcV_1.jpg[/img]\n\n[mediainfo]General\nUnique ID : 38853360429853228012844823039541303105 (0x1D3AE29145ED8F4EE044FEB06E1CD741)\nComplete name : /home/rt/downloads/X-Men.Days.of.Future.Past.KORSUB.2014.x264.720P.IPTV.REC-CK.mkv\nFormat : Matroska\nFormat version : Version 2\nFile size : 4.01 GiB\nDuration : 2h 11mn\nOverall bit rate : 4 378 Kbps\nWriting application : PotEncoder\nWriting library : PotEncoder\n\nVideo\nID : 1\nFormat : AVC\nFormat/Info : Advanced Video Codec\nFormat profile : &lt;a class=&quot;__cf_email__&quot; href=&quot;/cdn-cgi/l/email-protection&quot; data-cfemail=&quot;3179585659717d051f00&quot;&gt;[email&amp;#160;protected]&lt;/a&gt;&lt;script cf-hash='f9e31' type=&quot;text/javascript&quot;&gt;\n/* &lt;![CDATA[ */!function(){try{var t=&quot;currentScript&quot;in document?document.currentScript:function(){for(var t=document.getElementsByTagName(&quot;script&quot;),e=t.length;e--;)if(t[e].getAttribute(&quot;cf-hash&quot;))return t[e]}();if(t&amp;&amp;t.previousSibling){var e,r,n,i,c=t.previousSibling,a=c.getAttribute(&quot;data-cfemail&quot;);if(a){for(e=&quot;&quot;,r=parseInt(a.substr(0,2),16),n=2;a.length-n;n+=2)i=parseInt(a.substr(n,2),16)^r,e+=String.fromCharCode(i);e=document.createTextNode(e),c.parentNode.replaceChild(e,c)}}}catch(u){}}();/* ]]&gt; */&lt;/script&gt;\nFormat settings, CABAC : Yes\nFormat settings, ReFrames : 5 frames\nCodec ID : V_MPEG4/ISO/AVC\nDuration : 2h 11mn\nBit rate : 4 099 Kbps\nWidth : 1 280 pixels\nHeight : 720 pixels\nDisplay aspect ratio : 16:9\nFrame rate mode : Constant\nFrame rate : 30.181 fps\nColor space : YUV\nChroma subsampling : 4:2:0\nBit depth : 8 bits\nScan type : Progressive\nBits/(Pixel*Frame) : 0.147\nStream size : 3.75 GiB (94%)\nDefault : Yes\nForced : No\n\nAudio\nID : 2\nFormat : MPEG Audio\nFormat version : Version 1\nFormat profile : Layer 3\nMode : Joint stereo\nMode extension : MS Stereo\nCodec ID : A_MPEG/L3\nCodec ID/Hint : MP3\nDuration : 2h 11mn\nBit rate mode : Constant\nBit rate : 192 Kbps\nChannel(s) : 2 channels\nSampling rate : 44.1 KHz\nCompression mode : Lossy\nDelay relative to video : 26ms\nStream size : 180 MiB (4%)\nWriting library : LAME3.98.2\nDefault : Yes\nForced : No[/mediainfo]\n\nNotes:\nHardcoded Korean Subs\nGreetz To Everyone","torrent":{"xt":"urn:btih:e0b96b71edf4470a5a6258015e85c87256daf909","amp;dn":"X-Men+Days+of+Future+Past+KORSUB+2014+720p+HDRip+x264+MP3-%5BRARBG","amp;tr":["udp%3A%2F%2Ftracker.openbittorrent.com%3A80","udp%3A%2F%2Fopen.demonii.com%3A1337","udp%3A%2F%2Ftracker.coppersurfer.tk%3A6969","udp%3A%2F%2Fexodus.desync.com%3A6969"],"infoHash":"e0b96b71edf4470a5a6258015e85c87256daf909","infoHashBuffer":{"type":"Buffer","data":[224,185,107,113,237,244,71,10,90,98,88,1,94,133,200,114,86,218,249,9]},"announce":[],"urlList":[]}}